<svg xmlns="http://www.w3.org/2000/svg" xmlns:xlink="http://www.w3.org/1999/xlink" width="181.656" height="72.00000000000001"><path fill="#1c76c5" stroke="#41adff" d="M56.09 5.62L56.09 12.24L49.46 12.24L49.46 5.62L56.09 5.62ZM48.53 5.62L48.53 12.24L41.90 12.24L41.90 5.62L48.53 5.62ZM56.09 13.18L56.09 19.80L49.46 19.80L49.46 13.18L56.09 13.18ZM40.97 5.62L40.97 12.24L34.34 12.24L34.34 5.62L40.97 5.62ZM56.09 20.74L56.09 27.36L49.46 27.36L49.46 20.74L56.09 20.74ZM33.41 5.62L33.41 12.24L26.78 12.24L26.78 5.62L33.41 5.62ZM56.09 28.30L56.09 34.92L49.46 34.92L49.46 28.30L56.09 28.30ZM25.85 5.62L25.85 12.24L19.22 12.24L19.22 5.62L25.85 5.62ZM56.09 35.86L56.09 42.48L49.46 42.48L49.46 35.86L56.09 35.86ZM18.29 5.62L18.29 12.24L11.66 12.24L11.66 5.62L18.29 5.62ZM33.41 20.74L33.41 27.36L26.78 27.36L26.78 20.74L33.41 20.74ZM48.53 35.86L48.53 42.48L41.90 42.48L41.90 35.86L48.53 35.86ZM10.73 5.62L10.73 12.24L4.10 12.24L4.10 5.62L10.73 5.62ZM40.97 35.86L40.97 42.48L34.34 42.48L34.34 35.86L40.97 35.86ZM10.73 13.18L10.73 19.80L4.10 19.80L4.10 13.18L10.73 13.18ZM33.41 35.86L33.41 42.48L26.78 42.48L26.78 35.86L33.41 35.86ZM10.73 20.74L10.73 27.36L4.10 27.36L4.10 20.74L10.73 20.74ZM33.41 43.42L33.41 50.04L26.78 50.04L26.78 43.42L33.41 43.42ZM10.73 28.30L10.73 34.92L4.10 34.92L4.10 28.30L10.73 28.30ZM33.41 50.98L33.41 57.60L26.78 57.60L26.78 50.98L33.41 50.98ZM10.73 35.86L10.73 42.48L4.10 42.48L4.10 35.86L10.73 35.86ZM25.85 50.98L25.85 57.60L19.22 57.60L19.22 50.98L25.85 50.98ZM10.73 43.42L10.73 50.04L4.10 50.04L4.10 43.42L10.73 43.42ZM18.29 50.98L18.29 57.60L11.66 57.60L11.66 50.98L18.29 50.98ZM10.73 50.98L10.73 57.60L4.10 57.60L4.10 50.98L10.73 50.98ZM116.64 5.62L116.64 12.24L110.02 12.24L110.02 5.62L116.64 5.62ZM109.08 5.62L109.08 12.24L102.46 12.24L102.46 5.62L109.08 5.62ZM116.64 13.18L116.64 19.80L110.02 19.80L110.02 13.18L116.64 13.18ZM101.52 5.62L101.52 12.24L94.90 12.24L94.90 5.62L101.52 5.62ZM116.64 20.74L116.64 27.36L110.02 27.36L110.02 20.74L116.64 20.74ZM93.96 5.62L93.96 12.24L87.34 12.24L87.34 5.62L93.96 5.62ZM116.64 28.30L116.64 34.92L110.02 34.92L110.02 28.30L116.64 28.30ZM86.40 5.62L86.40 12.24L79.78 12.24L79.78 5.62L86.40 5.62ZM116.64 35.86L116.64 42.48L110.02 42.48L110.02 35.86L116.64 35.86ZM78.84 5.62L78.84 12.24L72.22 12.24L72.22 5.62L78.84 5.62ZM93.96 20.74L93.96 27.36L87.34 27.36L87.34 20.74L93.96 20.74ZM109.08 35.86L109.08 42.48L102.46 42.48L102.46 35.86L109.08 35.86ZM71.28 5.62L71.28 12.24L64.66 12.24L64.66 5.62L71.28 5.62ZM101.52 35.86L101.52 42.48L94.90 42.48L94.90 35.86L101.52 35.86ZM71.28 13.18L71.28 19.80L64.66 19.80L64.66 13.18L71.28 13.18ZM93.96 35.86L93.96 42.48L87.34 42.48L87.34 35.86L93.96 35.86ZM71.28 20.74L71.28 27.36L64.66 27.36L64.66 20.74L71.28 20.74ZM93.96 43.42L93.96 50.04L87.34 50.04L87.34 43.42L93.96 43.42ZM71.28 28.30L71.28 34.92L64.66 34.92L64.66 28.30L71.28 28.30ZM93.96 50.98L93.96 57.60L87.34 57.60L87.34 50.98L93.96 50.98ZM71.28 35.86L71.28 42.48L64.66 42.48L64.66 35.86L71.28 35.86ZM86.40 50.98L86.40 57.60L79.78 57.60L79.78 50.98L86.40 50.98ZM71.28 43.42L71.28 50.04L64.66 50.04L64.66 43.42L71.28 43.42ZM78.84 50.98L78.84 57.60L72.22 57.60L72.22 50.98L78.84 50.98ZM71.28 50.98L71.28 57.60L64.66 57.60L64.66 50.98L71.28 50.98ZM177.19 5.62L177.19 12.24L170.57 12.24L170.57 5.62L177.19 5.62ZM169.63 5.62L169.63 12.24L163.01 12.24L163.01 5.62L169.63 5.62ZM177.19 13.18L177.19 19.80L170.57 19.80L170.57 13.18L177.19 13.18ZM162.07 5.62L162.07 12.24L155.45 12.24L155.45 5.62L162.07 5.62ZM177.19 20.74L177.19 27.36L170.57 27.36L170.57 20.74L177.19 20.74ZM154.51 5.62L154.51 12.24L147.89 12.24L147.89 5.62L154.51 5.62ZM177.19 28.30L177.19 34.92L170.57 34.92L170.57 28.30L177.19 28.30ZM146.95 5.62L146.95 12.24L140.33 12.24L140.33 5.62L146.95 5.62ZM154.51 13.18L154.51 19.80L147.89 19.80L147.89 13.18L154.51 13.18ZM177.19 35.86L177.19 42.48L170.57 42.48L170.57 35.86L177.19 35.86ZM139.39 5.62L139.39 12.24L132.77 12.24L132.77 5.62L139.39 5.62ZM154.51 20.74L154.51 27.36L147.89 27.36L147.89 20.74L154.51 20.74ZM177.19 43.42L177.19 50.04L170.57 50.04L170.57 43.42L177.19 43.42ZM131.83 5.62L131.83 12.24L125.21 12.24L125.21 5.62L131.83 5.62ZM162.07 35.86L162.07 42.48L155.45 42.48L155.45 35.86L162.07 35.86ZM177.19 50.98L177.19 57.60L170.57 57.60L170.57 50.98L177.19 50.98ZM131.83 13.18L131.83 19.80L125.21 19.80L125.21 13.18L131.83 13.18ZM162.07 43.42L162.07 50.04L155.45 50.04L155.45 43.42L162.07 43.42ZM169.63 50.98L169.63 57.60L163.01 57.60L163.01 50.98L169.63 50.98ZM131.83 20.74L131.83 27.36L125.21 27.36L125.21 20.74L131.83 20.74ZM146.95 35.86L146.95 42.48L140.33 42.48L140.33 35.86L146.95 35.86ZM162.07 50.98L162.07 57.60L155.45 57.60L155.45 50.98L162.07 50.98ZM131.83 28.30L131.83 34.92L125.21 34.92L125.21 28.30L131.83 28.30ZM146.95 43.42L146.95 50.04L140.33 50.04L140.33 43.42L146.95 43.42ZM154.51 50.98L154.51 57.60L147.89 57.60L147.89 50.98L154.51 50.98ZM131.83 35.86L131.83 42.48L125.21 42.48L125.21 35.86L131.83 35.86ZM146.95 50.98L146.95 57.60L140.33 57.60L140.33 50.98L146.95 50.98ZM131.83 43.42L131.83 50.04L125.21 50.04L125.21 43.42L131.83 43.42ZM139.39 50.98L139.39 57.60L132.77 57.60L132.77 50.98L139.39 50.98ZM131.83 50.98L131.83 57.60L125.21 57.60L125.21 50.98L131.83 50.98Z"/></svg>