<svg version="1.1" xmlns="http://www.w3.org/2000/svg" xmlns:xlink="http://www.w3.org/1999/xlink" role="img" width="184" height="74" viewbox="0 0 184 74"><title>PPM</title><desc>Generated by logo.svg, https://github.com/bubkoo/logo.svg</desc><path fill="#1c76c5" stroke="#41adff" d="M57.09 14.24L50.46 14.24L50.46 7.62L57.09 7.62L57.09 14.24M49.53 14.24L42.90 14.24L42.90 7.62L49.53 7.62L49.53 14.24M57.09 21.80L50.46 21.80L50.46 15.18L57.09 15.18L57.09 21.80M41.97 14.24L35.34 14.24L35.34 7.62L41.97 7.62L41.97 14.24M57.09 29.36L50.46 29.36L50.46 22.74L57.09 22.74L57.09 29.36M34.41 14.24L27.78 14.24L27.78 7.62L34.41 7.62L34.41 14.24M57.09 36.92L50.46 36.92L50.46 30.30L57.09 30.30L57.09 36.92M26.85 14.24L20.22 14.24L20.22 7.62L26.85 7.62L26.85 14.24M57.09 44.48L50.46 44.48L50.46 37.86L57.09 37.86L57.09 44.48M19.29 14.24L12.66 14.24L12.66 7.62L19.29 7.62L19.29 14.24M34.41 29.36L27.78 29.36L27.78 22.74L34.41 22.74L34.41 29.36M49.53 44.48L42.90 44.48L42.90 37.86L49.53 37.86L49.53 44.48M11.73 14.24L5.10 14.24L5.10 7.62L11.73 7.62L11.73 14.24M41.97 44.48L35.34 44.48L35.34 37.86L41.97 37.86L41.97 44.48M11.73 21.80L5.10 21.80L5.10 15.18L11.73 15.18L11.73 21.80M34.41 44.48L27.78 44.48L27.78 37.86L34.41 37.86L34.41 44.48M11.73 29.36L5.10 29.36L5.10 22.74L11.73 22.74L11.73 29.36M34.41 52.04L27.78 52.04L27.78 45.42L34.41 45.42L34.41 52.04M11.73 36.92L5.10 36.92L5.10 30.30L11.73 30.30L11.73 36.92M34.41 59.60L27.78 59.60L27.78 52.98L34.41 52.98L34.41 59.60M11.73 44.48L5.10 44.48L5.10 37.86L11.73 37.86L11.73 44.48M26.85 59.60L20.22 59.60L20.22 52.98L26.85 52.98L26.85 59.60M11.73 52.04L5.10 52.04L5.10 45.42L11.73 45.42L11.73 52.04M19.29 59.60L12.66 59.60L12.66 52.98L19.29 52.98L19.29 59.60M11.73 59.60L5.10 59.60L5.10 52.98L11.73 52.98L11.73 59.60ZM117.64 14.24L111.02 14.24L111.02 7.62L117.64 7.62L117.64 14.24M110.08 14.24L103.46 14.24L103.46 7.62L110.08 7.62L110.08 14.24M117.64 21.80L111.02 21.80L111.02 15.18L117.64 15.18L117.64 21.80M102.52 14.24L95.90 14.24L95.90 7.62L102.52 7.62L102.52 14.24M117.64 29.36L111.02 29.36L111.02 22.74L117.64 22.74L117.64 29.36M94.96 14.24L88.34 14.24L88.34 7.62L94.96 7.62L94.96 14.24M117.64 36.92L111.02 36.92L111.02 30.30L117.64 30.30L117.64 36.92M87.40 14.24L80.78 14.24L80.78 7.62L87.40 7.62L87.40 14.24M117.64 44.48L111.02 44.48L111.02 37.86L117.64 37.86L117.64 44.48M79.84 14.24L73.22 14.24L73.22 7.62L79.84 7.62L79.84 14.24M94.96 29.36L88.34 29.36L88.34 22.74L94.96 22.74L94.96 29.36M110.08 44.48L103.46 44.48L103.46 37.86L110.08 37.86L110.08 44.48M72.28 14.24L65.66 14.24L65.66 7.62L72.28 7.62L72.28 14.24M102.52 44.48L95.90 44.48L95.90 37.86L102.52 37.86L102.52 44.48M72.28 21.80L65.66 21.80L65.66 15.18L72.28 15.18L72.28 21.80M94.96 44.48L88.34 44.48L88.34 37.86L94.96 37.86L94.96 44.48M72.28 29.36L65.66 29.36L65.66 22.74L72.28 22.74L72.28 29.36M94.96 52.04L88.34 52.04L88.34 45.42L94.96 45.42L94.96 52.04M72.28 36.92L65.66 36.92L65.66 30.30L72.28 30.30L72.28 36.92M94.96 59.60L88.34 59.60L88.34 52.98L94.96 52.98L94.96 59.60M72.28 44.48L65.66 44.48L65.66 37.86L72.28 37.86L72.28 44.48M87.40 59.60L80.78 59.60L80.78 52.98L87.40 52.98L87.40 59.60M72.28 52.04L65.66 52.04L65.66 45.42L72.28 45.42L72.28 52.04M79.84 59.60L73.22 59.60L73.22 52.98L79.84 52.98L79.84 59.60M72.28 59.60L65.66 59.60L65.66 52.98L72.28 52.98L72.28 59.60ZM178.19 14.24L171.57 14.24L171.57 7.62L178.19 7.62L178.19 14.24M170.63 14.24L164.01 14.24L164.01 7.62L170.63 7.62L170.63 14.24M178.19 21.80L171.57 21.80L171.57 15.18L178.19 15.18L178.19 21.80M163.07 14.24L156.45 14.24L156.45 7.62L163.07 7.62L163.07 14.24M178.19 29.36L171.57 29.36L171.57 22.74L178.19 22.74L178.19 29.36M155.51 14.24L148.89 14.24L148.89 7.62L155.51 7.62L155.51 14.24M178.19 36.92L171.57 36.92L171.57 30.30L178.19 30.30L178.19 36.92M147.95 14.24L141.33 14.24L141.33 7.62L147.95 7.62L147.95 14.24M155.51 21.80L148.89 21.80L148.89 15.18L155.51 15.18L155.51 21.80M178.19 44.48L171.57 44.48L171.57 37.86L178.19 37.86L178.19 44.48M140.39 14.24L133.77 14.24L133.77 7.62L140.39 7.62L140.39 14.24M155.51 29.36L148.89 29.36L148.89 22.74L155.51 22.74L155.51 29.36M178.19 52.04L171.57 52.04L171.57 45.42L178.19 45.42L178.19 52.04M132.83 14.24L126.21 14.24L126.21 7.62L132.83 7.62L132.83 14.24M163.07 44.48L156.45 44.48L156.45 37.86L163.07 37.86L163.07 44.48M178.19 59.60L171.57 59.60L171.57 52.98L178.19 52.98L178.19 59.60M132.83 21.80L126.21 21.80L126.21 15.18L132.83 15.18L132.83 21.80M163.07 52.04L156.45 52.04L156.45 45.42L163.07 45.42L163.07 52.04M170.63 59.60L164.01 59.60L164.01 52.98L170.63 52.98L170.63 59.60M132.83 29.36L126.21 29.36L126.21 22.74L132.83 22.74L132.83 29.36M147.95 44.48L141.33 44.48L141.33 37.86L147.95 37.86L147.95 44.48M163.07 59.60L156.45 59.60L156.45 52.98L163.07 52.98L163.07 59.60M132.83 36.92L126.21 36.92L126.21 30.30L132.83 30.30L132.83 36.92M147.95 52.04L141.33 52.04L141.33 45.42L147.95 45.42L147.95 52.04M155.51 59.60L148.89 59.60L148.89 52.98L155.51 52.98L155.51 59.60M132.83 44.48L126.21 44.48L126.21 37.86L132.83 37.86L132.83 44.48M147.95 59.60L141.33 59.60L141.33 52.98L147.95 52.98L147.95 59.60M132.83 52.04L126.21 52.04L126.21 45.42L132.83 45.42L132.83 52.04M140.39 59.60L133.77 59.60L133.77 52.98L140.39 52.98L140.39 59.60M132.83 59.60L126.21 59.60L126.21 52.98L132.83 52.98L132.83 59.60Z"></path></svg>